# Blender v2.77 (sub 0) OBJ File: 'Low Poly Door.blend'
# www.blender.org
mtllib Low Poly Door.mtl
o Handle_1_Cube.005
v 0.046269 2.465321 -1.154547
v 0.046269 2.543184 -1.154547
v 0.046269 2.465321 -1.213660
v 0.046269 2.543184 -1.213660
v 0.150396 2.465321 -1.154547
v 0.150396 2.543184 -1.154547
v 0.150396 2.465321 -1.213660
v 0.150396 2.543184 -1.213660
v 0.222951 2.543184 -1.213660
v 0.222951 2.465321 -1.213660
v 0.222951 2.543184 -1.154547
v 0.222951 2.465321 -1.154547
v 0.156548 2.537302 -0.890203
v 0.156548 2.471203 -0.890203
v 0.216799 2.537302 -0.890203
v 0.216799 2.471203 -0.890203
vn -1.0000 0.0000 0.0000
vn 0.0000 0.0000 -1.0000
vn -0.9997 0.0000 0.0233
vn 0.0000 0.0000 1.0000
vn 0.0000 -1.0000 0.0000
vn 0.0000 1.0000 0.0000
vn 1.0000 0.0000 0.0000
vn 0.0000 0.9998 0.0222
vn 0.0000 -0.9998 0.0222
vn 0.9997 0.0000 0.0233
usemtl None
s off
f 2//1 4//1 3//1 1//1
f 4//2 8//2 7//2 3//2
f 6//3 5//3 14//3 13//3
f 6//4 2//4 1//4 5//4
f 1//5 3//5 7//5 5//5
f 6//6 8//6 4//6 2//6
f 9//7 11//7 12//7 10//7
f 5//5 7//5 10//5 12//5
f 8//6 6//6 11//6 9//6
f 7//2 8//2 9//2 10//2
f 13//4 14//4 16//4 15//4
f 11//8 6//8 13//8 15//8
f 5//9 12//9 16//9 14//9
f 12//10 11//10 15//10 16//10
o Around_left_Cube.001
v -0.121801 -0.092249 1.318483
v -0.121801 5.313702 1.318483
v -0.121801 -0.092249 1.098840
v -0.121801 5.313702 1.098840
v 0.121860 -0.092249 1.318483
v 0.121860 5.313702 1.318483
v 0.121860 -0.092249 1.098840
v 0.121860 5.313702 1.098840
vn -1.0000 0.0000 0.0000
vn 0.0000 0.0000 -1.0000
vn 1.0000 0.0000 0.0000
vn 0.0000 0.0000 1.0000
vn 0.0000 -1.0000 0.0000
vn 0.0000 1.0000 0.0000
usemtl None
s off
f 18//11 20//11 19//11 17//11
f 20//12 24//12 23//12 19//12
f 24//13 22//13 21//13 23//13
f 22//14 18//14 17//14 21//14
f 17//15 19//15 23//15 21//15
f 22//16 24//16 20//16 18//16
o Body_Cube
v 0.068059 -0.085792 -1.537852
v 0.068059 -0.085792 1.262147
v -0.043747 -0.085792 1.262147
v -0.043747 -0.085792 -1.537853
v 0.068060 5.314208 -1.537852
v 0.068059 5.314208 1.262148
v -0.043747 5.314208 1.262147
v -0.043747 5.314208 -1.537853
vn 0.0000 -1.0000 0.0000
vn 0.0000 1.0000 0.0000
vn 1.0000 0.0000 0.0000
vn -0.0000 -0.0000 1.0000
vn -1.0000 -0.0000 -0.0000
vn 0.0000 0.0000 -1.0000
usemtl Material
s off
f 25//17 26//17 27//17 28//17
f 29//18 32//18 31//18 30//18
f 25//19 29//19 30//19 26//19
f 26//20 30//20 31//20 27//20
f 27//21 31//21 32//21 28//21
f 29//22 25//22 28//22 32//22
o Around_right_Cube.003
v -0.121801 -0.092249 -1.455762
v -0.121801 5.313702 -1.455762
v -0.121801 -0.092249 -1.675405
v -0.121801 5.313702 -1.675405
v 0.121860 -0.092249 -1.455762
v 0.121860 5.313702 -1.455762
v 0.121860 -0.092249 -1.675405
v 0.121860 5.313702 -1.675405
vn -1.0000 0.0000 0.0000
vn 0.0000 0.0000 -1.0000
vn 1.0000 0.0000 0.0000
vn 0.0000 0.0000 1.0000
vn 0.0000 -1.0000 0.0000
vn 0.0000 1.0000 0.0000
usemtl None
s off
f 34//23 36//23 35//23 33//23
f 36//24 40//24 39//24 35//24
f 40//25 38//25 37//25 39//25
f 38//26 34//26 33//26 37//26
f 33//27 35//27 39//27 37//27
f 38//28 40//28 36//28 34//28
o Around_top_Cube.004
v -0.121801 5.511524 1.319220
v -0.121801 5.511524 -1.675922
v -0.121801 5.291880 1.319220
v -0.121801 5.291881 -1.675922
v 0.121860 5.511524 1.319220
v 0.121860 5.511524 -1.675922
v 0.121860 5.291880 1.319220
v 0.121860 5.291881 -1.675922
vn -1.0000 0.0000 0.0000
vn 0.0000 -1.0000 -0.0000
vn 1.0000 0.0000 0.0000
vn 0.0000 1.0000 0.0000
vn 0.0000 0.0000 1.0000
vn 0.0000 0.0000 -1.0000
usemtl None
s off
f 42//29 44//29 43//29 41//29
f 44//30 48//30 47//30 43//30
f 48//31 46//31 45//31 47//31
f 46//32 42//32 41//32 45//32
f 41//33 43//33 47//33 45//33
f 46//34 48//34 44//34 42//34
o Handle__2_Cube.006
v -0.026478 2.543184 -1.217137
v -0.026478 2.465321 -1.217137
v -0.026478 2.543184 -1.276249
v -0.026478 2.465321 -1.276249
v -0.130604 2.543184 -1.217137
v -0.130604 2.465321 -1.217137
v -0.130604 2.543184 -1.276249
v -0.130604 2.465321 -1.276249
v -0.203159 2.465321 -1.276249
v -0.203159 2.543184 -1.276249
v -0.203159 2.465321 -1.217137
v -0.203159 2.543184 -1.217137
v -0.136756 2.471203 -0.952792
v -0.136756 2.537302 -0.952792
v -0.197007 2.471203 -0.952792
v -0.197007 2.537302 -0.952792
vn 1.0000 0.0000 0.0000
vn 0.0000 0.0000 -1.0000
vn 0.9997 0.0000 0.0233
vn 0.0000 0.0000 1.0000
vn 0.0000 1.0000 0.0000
vn 0.0000 -1.0000 0.0000
vn -1.0000 -0.0000 0.0000
vn 0.0000 -0.9998 0.0222
vn -0.0000 0.9998 0.0222
vn -0.9997 -0.0000 0.0233
usemtl None
s off
f 50//35 52//35 51//35 49//35
f 52//36 56//36 55//36 51//36
f 54//37 53//37 62//37 61//37
f 54//38 50//38 49//38 53//38
f 49//39 51//39 55//39 53//39
f 54//40 56//40 52//40 50//40
f 57//41 59//41 60//41 58//41
f 53//39 55//39 58//39 60//39
f 56//40 54//40 59//40 57//40
f 55//36 56//36 57//36 58//36
f 61//38 62//38 64//38 63//38
f 59//42 54//42 61//42 63//42
f 53//43 60//43 64//43 62//43
f 60//44 59//44 63//44 64//44
